<svg data-v-423bf9ae="" xmlns="http://www.w3.org/2000/svg" viewBox="0 0 211.68605188432005 60" class="font"><!----><!----><defs data-v-423bf9ae=""><linearGradient data-v-423bf9ae="" gradientTransform="rotate(25)" id="cde6766a-bbed-4a31-8f9e-379134961b0b" x1="0%" y1="0%" x2="100%" y2="0%"><stop data-v-423bf9ae="" offset="0%" style="stop-color: rgb(78, 26, 112); stop-opacity: 1;"></stop><stop data-v-423bf9ae="" offset="100%" style="stop-color: rgb(43, 76, 242); stop-opacity: 1;"></stop></linearGradient></defs><g data-v-423bf9ae="" id="bcdb4a0f-dc19-4a62-b089-2f89d99d427f" fill="url(#cde6766a-bbed-4a31-8f9e-379134961b0b)" transform="matrix(5.813953660298242,0,0,5.813953660298242,5.697675393855619,-20.174418652317712)"><path d="M7.81 13.13L7.81 13.13L6.78 13.06L6.78 13.06Q5.78 13.06 3.71 13.37L3.71 13.37L3.71 13.37Q1.64 13.68 0.90 13.68L0.90 13.68L0.90 13.68Q0.17 13.68-0.41 13.24L-0.41 13.24L-0.41 13.24Q-0.98 12.80-0.98 12.19L-0.98 12.19L-0.98 12.19Q-0.98 11.58 0.34 10.67L0.34 10.67L0.34 10.67Q1.65 9.76 3.23 9.00L3.23 9.00L3.23 9.00Q4.80 8.23 6.12 7.60L6.12 7.60L6.12 7.60Q7.43 6.97 7.43 6.90L7.43 6.90L7.43 6.90Q7.43 6.86 7.36 6.86L7.36 6.86L7.36 6.86Q7.29 6.86 6.48 7.07L6.48 7.07L6.48 7.07Q4.05 7.70 2.97 7.70L2.97 7.70L2.97 7.70Q2.25 7.70 1.85 7.33L1.85 7.33L1.85 7.33Q1.44 6.96 1.44 6.38L1.44 6.38L1.44 6.38Q1.44 5.80 2.79 4.63L2.79 4.63L2.79 4.63Q4.13 3.47 4.86 3.47L4.86 3.47L4.86 3.47Q5.15 3.47 5.15 3.70L5.15 3.70L5.15 3.70Q5.15 3.88 5.05 3.98L5.05 3.98L5.05 3.98Q4.96 4.07 4.79 4.19L4.79 4.19L4.79 4.19Q4.34 4.51 4.34 4.58L4.34 4.58L4.34 4.58Q4.34 4.68 4.73 4.68L4.73 4.68L4.73 4.68Q5.11 4.68 6.56 4.38L6.56 4.38L6.56 4.38Q8.01 4.07 8.64 4.07L8.64 4.07L8.64 4.07Q9.27 4.07 9.77 4.19L9.77 4.19L9.77 4.19Q10.28 4.30 10.68 4.63L10.68 4.63L10.68 4.63Q11.09 4.96 11.09 5.45L11.09 5.45L11.09 5.45Q11.09 5.73 10.84 5.98L10.84 5.98L10.84 5.98Q10.58 6.23 10.33 6.38L10.33 6.38L10.33 6.38Q10.07 6.52 9.53 6.76L9.53 6.76L9.53 6.76Q8.99 7 6.25 8.41L6.25 8.41L6.25 8.41Q3.51 9.81 2.98 10.11L2.98 10.11L2.98 10.11Q2.44 10.40 2.44 10.49L2.44 10.49L2.44 10.49Q2.44 10.54 2.63 10.54L2.63 10.54L2.63 10.54Q2.88 10.54 3.03 10.49L3.03 10.49L3.03 10.49Q3.18 10.44 3.19 10.44L3.19 10.44L3.19 10.44Q4.17 10.23 4.91 10.23L4.91 10.23L4.91 10.23Q5.64 10.23 6.36 10.52L6.36 10.52L6.36 10.52Q7.07 10.81 7.50 11.22L7.50 11.22L7.50 11.22Q7.94 11.63 8.19 12.05L8.19 12.05L8.19 12.05Q8.44 12.47 8.44 12.77L8.44 12.77L8.44 12.77Q8.44 13.13 7.81 13.13ZM9.10 13.36L9.10 13.36Q8.83 13.36 8.65 13.13L8.65 13.13L8.65 13.13Q8.47 12.91 8.47 12.56L8.47 12.56L8.47 12.56Q8.47 12.22 8.78 11.73L8.78 11.73L8.78 11.73Q9.09 11.24 9.52 10.82L9.52 10.82L9.52 10.82Q10.44 9.97 11.16 9.51L11.16 9.51L11.47 9.30L11.47 9.30Q11.69 9.20 11.94 9.20L11.94 9.20L11.94 9.20Q12.18 9.20 12.38 9.36L12.38 9.36L12.38 9.36Q12.57 9.52 12.57 9.73L12.57 9.73L12.57 9.73Q12.57 9.94 12.50 10.11L12.50 10.11L12.50 10.11Q12.43 10.28 12.35 10.37L12.35 10.37L12.35 10.37Q12.12 10.70 12.08 10.75L12.08 10.75L12.08 10.75Q12.04 10.79 12.04 10.84L12.04 10.84L12.04 10.84Q12.04 10.89 12.10 10.89L12.10 10.89L12.10 10.89Q12.17 10.89 12.68 10.49L12.68 10.49L12.68 10.49Q14.22 9.23 14.90 9.23L14.90 9.23L14.90 9.23Q15.16 9.23 15.35 9.39L15.35 9.39L15.35 9.39Q15.54 9.55 15.54 9.74L15.54 9.74L15.54 9.74Q15.54 9.94 15.46 10.09L15.46 10.09L15.46 10.09Q15.37 10.23 15.22 10.42L15.22 10.42L15.22 10.42Q14.97 10.71 14.97 10.77L14.97 10.77L14.97 10.77Q14.97 10.84 15.07 10.84L15.07 10.84L15.07 10.84Q15.18 10.84 15.97 10.19L15.97 10.19L15.97 10.19Q16.77 9.55 17.08 9.55L17.08 9.55L17.08 9.55Q17.39 9.55 17.56 9.79L17.56 9.79L17.56 9.79Q17.74 10.04 17.74 10.29L17.74 10.29L17.74 10.29Q17.74 10.54 17.02 11.45L17.02 11.45L17.02 11.45Q16.31 12.35 16.31 12.47L16.31 12.47L16.31 12.47Q16.31 12.60 16.41 12.60L16.41 12.60L16.41 12.60Q16.49 12.59 16.60 12.52L16.60 12.52L16.60 12.52Q16.72 12.45 16.81 12.45L16.81 12.45L16.81 12.45Q17.00 12.45 17.00 12.60L17.00 12.60L17.00 12.60Q17.00 13.06 16.48 13.40L16.48 13.40L16.48 13.40Q15.96 13.75 15.43 13.75L15.43 13.75L15.43 13.75Q14.31 13.75 14.31 12.77L14.31 12.77L14.31 12.77Q14.31 12.57 14.43 12.28L14.43 12.28L14.43 12.28Q14.55 11.98 14.67 11.86L14.67 11.86L14.67 11.86Q14.71 11.77 14.71 11.74L14.71 11.74L14.71 11.74Q14.71 11.70 14.66 11.70L14.66 11.70L14.66 11.70Q14.62 11.70 14.55 11.74L14.55 11.74L14.55 11.74Q14.48 11.77 13.94 12.25L13.94 12.25L13.94 12.25Q12.49 13.55 11.94 13.55L11.94 13.55L11.94 13.55Q11.65 13.55 11.49 13.34L11.49 13.34L11.49 13.34Q11.34 13.12 11.34 12.88L11.34 12.88L11.34 12.88Q11.34 12.45 11.76 11.93L11.76 11.93L11.76 11.93Q11.80 11.86 11.80 11.79L11.80 11.79L11.80 11.79Q11.80 11.73 11.75 11.73L11.75 11.73L11.75 11.73Q11.69 11.73 11.62 11.79L11.62 11.79L11.62 11.79Q9.69 13.36 9.10 13.36L9.10 13.36ZM21.46 12.87L21.46 12.87L21.46 12.87Q21.46 12.94 21.56 12.96L21.56 12.96L21.56 12.96Q21.66 12.96 22.24 12.56L22.24 12.56L22.24 12.56Q22.82 12.17 22.90 12.12L22.90 12.12L22.90 12.12Q22.97 12.08 23.04 12.08L23.04 12.08L23.04 12.08Q23.24 12.08 23.24 12.27L23.24 12.27L23.24 12.27Q23.24 12.46 22.25 13.10L22.25 13.10L22.25 13.10Q21.27 13.75 20.86 13.75L20.86 13.75L20.86 13.75Q20.69 13.75 20.50 13.61L20.50 13.61L20.50 13.61Q20.31 13.47 20.31 13.28L20.31 13.28L20.31 13.28Q20.31 13.09 20.41 12.87L20.41 12.87L20.41 12.87Q20.51 12.64 20.51 12.56L20.51 12.56L20.51 12.56Q20.51 12.49 20.47 12.49L20.47 12.49L20.47 12.49Q20.43 12.49 20.38 12.52L20.38 12.52L20.38 12.52Q19.03 13.54 18.38 13.54L18.38 13.54L18.38 13.54Q18.02 13.54 17.81 13.27L17.81 13.27L17.81 13.27Q17.60 13.01 17.56 12.74L17.56 12.74L17.53 12.47L17.53 12.47Q17.53 12.01 17.89 11.40L17.89 11.40L17.89 11.40Q18.24 10.79 18.82 10.24L18.82 10.24L18.82 10.24Q19.40 9.69 20.25 9.31L20.25 9.31L20.25 9.31Q21.10 8.93 21.98 8.93L21.98 8.93L21.98 8.93Q22.46 8.93 22.87 9.18L22.87 9.18L22.87 9.18Q23.28 9.44 23.28 9.77L23.28 9.77L23.28 9.77Q23.28 10.11 22.62 10.18L22.62 10.18L22.62 10.18Q22.13 10.29 21.01 10.98L21.01 10.98L21.01 10.98Q19.88 11.68 19.88 12.04L19.88 12.04L19.88 12.04Q19.88 12.19 20.03 12.19L20.03 12.19L20.03 12.19Q20.31 12.19 21.36 11.40L21.36 11.40L21.36 11.40Q22.40 10.60 22.61 10.60L22.61 10.60L22.61 10.60Q22.82 10.60 22.82 10.85L22.82 10.85L22.82 10.85Q22.82 11.03 22.69 11.19L22.69 11.19L22.69 11.19Q22.55 11.35 22.50 11.42L22.50 11.42L22.50 11.42Q22.39 11.56 21.92 12.05L21.92 12.05L21.92 12.05Q21.46 12.53 21.46 12.87ZM22.64 13.08L22.64 13.08Q22.64 13.38 22.85 13.59L22.85 13.59L22.85 13.59Q23.06 13.79 23.39 13.79L23.39 13.79L23.39 13.79Q23.73 13.79 24.54 12.98L24.54 12.98L24.54 12.98Q25.35 12.17 25.98 11.28L25.98 11.28L25.98 11.28Q26.61 10.40 26.61 10.16L26.61 10.16L26.61 10.16Q26.61 9.42 25.98 9.42L25.98 9.42L25.98 9.42Q24.98 9.60 23.81 10.85L23.81 10.85L23.81 10.85Q22.64 12.10 22.64 13.08L22.64 13.08ZM26.87 8.97L26.87 8.97L26.87 8.97Q26.63 8.97 26.49 8.81L26.49 8.81L26.49 8.81Q26.35 8.64 26.32 8.47L26.32 8.47L26.31 8.32L26.31 8.32Q26.38 7.64 26.91 7.29L26.91 7.29L26.91 7.29Q27.44 6.94 27.83 6.94L27.83 6.94L27.83 6.94Q28.41 6.94 28.41 7.52L28.41 7.52L28.41 7.52Q28.41 7.88 27.97 8.39L27.97 8.39L27.97 8.39Q27.54 8.90 26.87 8.97ZM29.89 10.44L29.89 10.44L29.89 10.44Q28.81 11.90 28.81 12.43L28.81 12.43L28.81 12.43Q28.81 12.61 28.99 12.61L28.99 12.61L28.99 12.61Q29.48 12.61 30.86 11.83L30.86 11.83L30.86 11.83Q32.23 11.05 32.33 11.05L32.33 11.05L32.33 11.05Q32.52 11.05 32.52 11.21L32.52 11.21L32.52 11.24L32.52 11.24Q32.51 11.33 31.74 11.86L31.74 11.86L31.74 11.86Q30.97 12.39 29.82 12.94L29.82 12.94L29.82 12.94Q28.67 13.48 27.90 13.48L27.90 13.48L27.90 13.48Q26.68 13.48 26.68 12.07L26.68 12.07L26.68 12.07Q26.68 10.79 28.05 9.12L28.05 9.12L28.05 9.12Q29.41 7.45 31.25 6.27L31.25 6.27L31.25 6.27Q33.08 5.10 34.37 5.10L34.37 5.10L34.37 5.10Q34.93 5.10 35.18 5.42L35.18 5.42L35.18 5.42Q35.43 5.74 35.43 6.02L35.43 6.02L35.43 6.02Q35.43 6.58 34.74 7.32L34.74 7.32L34.74 7.32Q34.05 8.06 33.11 8.70L33.11 8.70L33.11 8.70Q32.17 9.34 31.27 9.82L31.27 9.82L31.27 9.82Q30.37 10.30 29.89 10.44ZM34.31 6.22L34.31 6.22L34.31 6.22Q34.09 6.22 33.24 6.94L33.24 6.94L33.24 6.94Q32.40 7.67 31.67 8.41L31.67 8.41L30.94 9.14L30.94 9.14Q30.83 9.25 30.83 9.32L30.83 9.32L30.83 9.32Q30.83 9.38 30.95 9.38L30.95 9.38L30.95 9.38Q31.51 9.38 32.94 8.05L32.94 8.05L32.94 8.05Q34.37 6.72 34.37 6.27L34.37 6.27L34.37 6.27Q34.37 6.22 34.31 6.22Z"></path></g><!----><!----></svg>